M48
; DRILL file {KiCad (5.1.6)-1} date 09/06/20 18:37:14
; FORMAT={-:-/ absolute / inch / decimal}
; #@! TF.CreationDate,2020-09-06T18:37:14-05:00
; #@! TF.GenerationSoftware,Kicad,Pcbnew,(5.1.6)-1
FMAT,2
INCH
T1C0.0315
T2C0.0320
T3C0.0350
T4C0.0393
T5C0.0400
T6C0.0500
T7C0.1300
%
G90
G05
T1
X3.05Y-3.25
X3.9Y-2.35
X3.9Y-2.45
X3.4Y-3.55
X3.85Y-2.9
X3.85Y-3.0
X3.95Y-3.3
X3.95Y-3.4
X3.5Y-3.55
X3.05Y-3.35
T2
X3.15Y-5.75
X3.15Y-6.05
X5.45Y-4.4
X5.75Y-4.4
X5.45Y-2.2
X5.75Y-2.2
X3.2Y-5.25
X3.2Y-5.35
X3.65Y-5.75
X3.65Y-6.05
X5.45Y-5.2
X5.75Y-5.2
X5.25Y-4.2
X5.55Y-4.2
X2.45Y-5.25
X2.45Y-5.35
X2.85Y-3.2
X2.85Y-3.6
X3.7Y-5.25
X3.7Y-5.35
X2.7Y-5.25
X2.7Y-5.35
X2.55Y-5.75
X2.55Y-6.05
X5.15Y-2.0
X5.45Y-2.0
X5.45Y-3.1
X5.75Y-3.1
X5.3Y-2.9
X5.6Y-2.9
X2.95Y-5.25
X2.95Y-5.35
X2.75Y-5.75
X2.75Y-6.05
X5.45Y-2.7
X5.75Y-2.7
X5.45Y-4.75
X5.75Y-4.75
X5.3Y-3.8
X5.6Y-3.8
X3.0Y-2.65
X3.0Y-2.75
X2.35Y-5.75
X2.35Y-6.05
X3.3Y-2.6
X3.3Y-2.7
X3.3Y-2.8
X3.3Y-2.9
X3.3Y-3.0
X3.3Y-3.1
X3.3Y-3.2
X3.3Y-3.3
X3.6Y-2.6
X3.6Y-2.7
X3.6Y-2.8
X3.6Y-2.9
X3.6Y-3.0
X3.6Y-3.1
X3.6Y-3.2
X3.6Y-3.3
X5.3Y-3.25
X5.6Y-3.25
X5.35Y-4.95
X5.65Y-4.95
X5.45Y-4.0
X5.75Y-4.0
X3.45Y-5.25
X3.45Y-5.35
X2.2Y-5.25
X2.2Y-5.35
X3.3Y-5.75
X3.3Y-6.05
X2.95Y-5.75
X2.95Y-6.05
X3.45Y-5.75
X3.45Y-6.05
X2.8Y-6.75
X2.8Y-6.85
X2.8Y-6.95
X5.3Y-2.45
X5.6Y-2.45
X5.25Y-4.55
X5.55Y-4.55
X5.45Y-3.5
X5.75Y-3.5
X3.95Y-5.25
X3.95Y-5.35
T3
X4.1Y-7.05
X4.2Y-7.05
X4.3Y-7.05
X4.4Y-7.05
X4.5Y-7.05
X4.6Y-7.05
X4.7Y-7.05
X4.8Y-7.05
X4.9Y-7.05
X5.0Y-7.05
X5.1Y-7.05
X4.35Y-4.1
X4.35Y-4.2
X4.35Y-4.3
X4.35Y-4.4
X4.35Y-4.5
X4.35Y-4.6
X4.35Y-4.7
X4.35Y-4.8
X6.2Y-6.75
X6.2Y-6.85
X6.2Y-6.95
X6.2Y-7.05
X6.2Y-7.15
X6.2Y-7.25
X6.2Y-7.35
X6.2Y-7.45
X1.9Y-2.6
X2.0Y-2.6
X2.1Y-2.6
X2.2Y-3.1
X2.3Y-3.1
X2.4Y-3.1
X5.85Y-6.75
X5.85Y-6.85
X5.85Y-6.95
X5.85Y-7.05
X5.85Y-7.15
X5.85Y-7.25
X5.85Y-7.35
X5.85Y-7.45
X3.7862Y-7.3736
X3.8862Y-7.3736
X3.9862Y-7.3736
X4.0862Y-7.3736
X4.1862Y-7.3736
X4.2862Y-7.3736
X4.3862Y-7.3736
X4.4862Y-7.3736
X4.5862Y-7.3736
X4.6862Y-7.3736
X4.7862Y-7.3736
X4.8862Y-7.3736
X4.9862Y-7.3736
X5.0862Y-7.3736
X2.55Y-6.4
X2.65Y-6.4
X2.75Y-6.4
X2.85Y-6.4
X2.95Y-6.4
X3.05Y-6.4
X3.15Y-6.4
X3.25Y-6.4
X2.65Y-3.0
X2.65Y-3.1
X1.95Y-6.8
X2.05Y-6.8
X2.15Y-6.8
T4
X6.4721Y-5.0115
X6.4721Y-5.1885
X6.7279Y-5.0115
X6.7279Y-5.1885
X6.4721Y-4.4615
X6.4721Y-4.6385
X6.7279Y-4.4615
X6.7279Y-4.6385
X6.4721Y-3.3115
X6.4721Y-3.4885
X6.7279Y-3.3115
X6.7279Y-3.4885
X6.4721Y-4.0115
X6.4721Y-4.1885
X6.7279Y-4.0115
X6.7279Y-4.1885
X6.3721Y-2.3615
X6.3721Y-2.5385
X6.6279Y-2.3615
X6.6279Y-2.5385
X6.3721Y-1.8615
X6.3721Y-2.0385
X6.6279Y-1.8615
X6.6279Y-2.0385
X6.4721Y-2.8615
X6.4721Y-3.0385
X6.7279Y-2.8615
X6.7279Y-3.0385
X6.4721Y-3.6615
X6.4721Y-3.8385
X6.7279Y-3.6615
X6.7279Y-3.8385
T5
X3.7862Y-7.3736
X2.55Y-6.4
X2.65Y-3.1
X1.95Y-6.8
X3.234Y-1.9
X3.288Y-1.8
X3.342Y-1.9
X3.396Y-1.8
X3.45Y-1.9
X3.504Y-1.8
X3.558Y-1.9
X3.612Y-1.8
X3.666Y-1.9
X4.1Y-7.05
X4.35Y-4.8
X6.2Y-6.75
X1.9Y-2.6
X2.4Y-3.1
X5.85Y-6.75
T6
X2.25Y-7.5
X2.35Y-7.1
X2.45Y-7.5
X3.3Y-6.75
X3.7Y-6.65
X3.7Y-6.85
X1.65Y-7.5
X1.75Y-7.1
X1.85Y-7.5
T7
X2.957Y-1.85
X3.943Y-1.85
T0
M30
