G04 #@! TF.GenerationSoftware,KiCad,Pcbnew,(5.1.6)-1*
G04 #@! TF.CreationDate,2020-09-06T18:37:01-05:00*
G04 #@! TF.ProjectId,Minimum card system,4d696e69-6d75-46d2-9063-617264207379,rev?*
G04 #@! TF.SameCoordinates,Original*
G04 #@! TF.FileFunction,Copper,L2,Bot*
G04 #@! TF.FilePolarity,Positive*
%FSLAX46Y46*%
G04 Gerber Fmt 4.6, Leading zero omitted, Abs format (unit mm)*
G04 Created by KiCad (PCBNEW (5.1.6)-1) date 2020-09-06 18:37:01*
%MOMM*%
%LPD*%
G01*
G04 APERTURE LIST*
G04 #@! TA.AperFunction,ComponentPad*
%ADD10C,2.032000*%
G04 #@! TD*
G04 #@! TA.AperFunction,ComponentPad*
%ADD11C,5.080000*%
G04 #@! TD*
G04 #@! TA.AperFunction,ComponentPad*
%ADD12C,1.998980*%
G04 #@! TD*
G04 #@! TA.AperFunction,ComponentPad*
%ADD13O,2.641600X1.320800*%
G04 #@! TD*
G04 #@! TA.AperFunction,ComponentPad*
%ADD14O,1.506220X3.014980*%
G04 #@! TD*
G04 #@! TA.AperFunction,ComponentPad*
%ADD15O,1.320800X2.641600*%
G04 #@! TD*
G04 #@! TA.AperFunction,Conductor*
%ADD16C,1.200000*%
G04 #@! TD*
G04 APERTURE END LIST*
D10*
X130810000Y-50800000D03*
X138430000Y-50800000D03*
D11*
X100152200Y-46990000D03*
X75107800Y-46990000D03*
D12*
X91744800Y-45720000D03*
X89001600Y-45720000D03*
X86258400Y-45720000D03*
X83515200Y-45720000D03*
X93116400Y-48260000D03*
X90373200Y-48260000D03*
X87630000Y-48260000D03*
X84886800Y-48260000D03*
X82143600Y-48260000D03*
D13*
X83820000Y-83820000D03*
X83820000Y-81280000D03*
X83820000Y-78740000D03*
X83820000Y-76200000D03*
X83820000Y-73660000D03*
X83820000Y-71120000D03*
X83820000Y-68580000D03*
X83820000Y-66040000D03*
X91440000Y-66040000D03*
X91440000Y-68580000D03*
X91440000Y-71120000D03*
X91440000Y-73660000D03*
X91440000Y-76200000D03*
X91440000Y-78740000D03*
X91440000Y-81280000D03*
X91440000Y-83820000D03*
X71120000Y-176530000D03*
X71120000Y-173990000D03*
X71120000Y-171450000D03*
D14*
X168348660Y-51777900D03*
X161851340Y-51777900D03*
X168348660Y-47282100D03*
X161851340Y-47282100D03*
X168348660Y-64477900D03*
X161851340Y-64477900D03*
X168348660Y-59982100D03*
X161851340Y-59982100D03*
X170888660Y-77177900D03*
X164391340Y-77177900D03*
X170888660Y-72682100D03*
X164391340Y-72682100D03*
X170888660Y-88607900D03*
X164391340Y-88607900D03*
X170888660Y-84112100D03*
X164391340Y-84112100D03*
X170888660Y-97497900D03*
X164391340Y-97497900D03*
X170888660Y-93002100D03*
X164391340Y-93002100D03*
X170888660Y-106387900D03*
X164391340Y-106387900D03*
X170888660Y-101892100D03*
X164391340Y-101892100D03*
X170888660Y-117817900D03*
X164391340Y-117817900D03*
X170888660Y-113322100D03*
X164391340Y-113322100D03*
X170888660Y-131787900D03*
X164391340Y-131787900D03*
X170888660Y-127292100D03*
X164391340Y-127292100D03*
D10*
X62230000Y-190500000D03*
X59690000Y-180340000D03*
X57150000Y-190500000D03*
X46990000Y-190500000D03*
X44450000Y-180340000D03*
X41910000Y-190500000D03*
X93980000Y-168910000D03*
X83820000Y-171450000D03*
X93980000Y-173990000D03*
X72390000Y-81280000D03*
X72390000Y-91440000D03*
X146050000Y-55880000D03*
X138430000Y-55880000D03*
X146050000Y-68580000D03*
X138430000Y-68580000D03*
X146050000Y-78740000D03*
X138430000Y-78740000D03*
X146050000Y-88900000D03*
X138430000Y-88900000D03*
X146050000Y-101600000D03*
X138430000Y-101600000D03*
X146050000Y-111760000D03*
X138430000Y-111760000D03*
X146050000Y-120650000D03*
X138430000Y-120650000D03*
X146050000Y-132080000D03*
X138430000Y-132080000D03*
X134620000Y-62230000D03*
X142240000Y-62230000D03*
X134620000Y-73660000D03*
X142240000Y-73660000D03*
X134620000Y-82550000D03*
X142240000Y-82550000D03*
X134620000Y-96520000D03*
X142240000Y-96520000D03*
X133350000Y-106680000D03*
X140970000Y-106680000D03*
X133350000Y-115570000D03*
X140970000Y-115570000D03*
X135890000Y-125730000D03*
X143510000Y-125730000D03*
X92710000Y-153670000D03*
X92710000Y-146050000D03*
X87630000Y-153670000D03*
X87630000Y-146050000D03*
X83820000Y-153670000D03*
X83820000Y-146050000D03*
X80010000Y-153670000D03*
X80010000Y-146050000D03*
X74930000Y-153670000D03*
X74930000Y-146050000D03*
X69850000Y-153670000D03*
X69850000Y-146050000D03*
X64770000Y-153670000D03*
X64770000Y-146050000D03*
X59690000Y-153670000D03*
X59690000Y-146050000D03*
D13*
X67310000Y-76200000D03*
X67310000Y-78740000D03*
X110490000Y-104140000D03*
X110490000Y-106680000D03*
X110490000Y-109220000D03*
X110490000Y-111760000D03*
X110490000Y-114300000D03*
X110490000Y-116840000D03*
X110490000Y-119380000D03*
X110490000Y-121920000D03*
D15*
X82550000Y-162560000D03*
X80010000Y-162560000D03*
X77470000Y-162560000D03*
X74930000Y-162560000D03*
X72390000Y-162560000D03*
X69850000Y-162560000D03*
X67310000Y-162560000D03*
X64770000Y-162560000D03*
X54610000Y-172720000D03*
X52070000Y-172720000D03*
X49530000Y-172720000D03*
X129540000Y-179070000D03*
X127000000Y-179070000D03*
X124460000Y-179070000D03*
X121920000Y-179070000D03*
X119380000Y-179070000D03*
X116840000Y-179070000D03*
X114300000Y-179070000D03*
X111760000Y-179070000D03*
X109220000Y-179070000D03*
X106680000Y-179070000D03*
X104140000Y-179070000D03*
D13*
X157480000Y-189230000D03*
X157480000Y-186690000D03*
X157480000Y-184150000D03*
X157480000Y-181610000D03*
X157480000Y-179070000D03*
X157480000Y-176530000D03*
X157480000Y-173990000D03*
X157480000Y-171450000D03*
X148590000Y-189230000D03*
X148590000Y-186690000D03*
X148590000Y-184150000D03*
X148590000Y-181610000D03*
X148590000Y-179070000D03*
X148590000Y-176530000D03*
X148590000Y-173990000D03*
X148590000Y-171450000D03*
D15*
X129190000Y-187290000D03*
X126650000Y-187290000D03*
X124110000Y-187290000D03*
X121570000Y-187290000D03*
X119030000Y-187290000D03*
X116490000Y-187290000D03*
X113950000Y-187290000D03*
X111410000Y-187290000D03*
X108870000Y-187290000D03*
X106330000Y-187290000D03*
X103790000Y-187290000D03*
X101250000Y-187290000D03*
X98710000Y-187290000D03*
X96170000Y-187290000D03*
X55880000Y-78740000D03*
X58420000Y-78740000D03*
X60960000Y-78740000D03*
X53340000Y-66040000D03*
X50800000Y-66040000D03*
X48260000Y-66040000D03*
D10*
X76200000Y-69850000D03*
X76200000Y-67310000D03*
X100330000Y-135890000D03*
X100330000Y-133350000D03*
X93980000Y-135890000D03*
X93980000Y-133350000D03*
X87630000Y-135890000D03*
X87630000Y-133350000D03*
X81280000Y-135890000D03*
X81280000Y-133350000D03*
X74930000Y-135890000D03*
X74930000Y-133350000D03*
X68580000Y-135890000D03*
X68580000Y-133350000D03*
X62230000Y-135890000D03*
X62230000Y-133350000D03*
X55880000Y-135890000D03*
X55880000Y-133350000D03*
D12*
X77470000Y-85090000D03*
X77470000Y-82550000D03*
X99060000Y-59690000D03*
X99060000Y-62230000D03*
X88900000Y-90170000D03*
X86360000Y-90170000D03*
X97790000Y-76200000D03*
X97790000Y-73660000D03*
X100330000Y-86360000D03*
X100330000Y-83820000D03*
D16*
X93980000Y-86360000D02*
X91440000Y-83820000D01*
X100330000Y-86360000D02*
X93980000Y-86360000D01*
X95250000Y-78740000D02*
X100330000Y-83820000D01*
X91440000Y-78740000D02*
X95250000Y-78740000D01*
X91440000Y-76200000D02*
X97790000Y-76200000D01*
X91440000Y-73660000D02*
X97790000Y-73660000D01*
X91440000Y-81280000D02*
X88900000Y-81280000D01*
X88900000Y-81280000D02*
X88900000Y-90170000D01*
X86360000Y-90170000D02*
X83820000Y-90170000D01*
X83820000Y-90170000D02*
X83820000Y-83820000D01*
X82550000Y-85090000D02*
X77470000Y-85090000D01*
X83820000Y-83820000D02*
X82550000Y-85090000D01*
X77470000Y-86360000D02*
X72390000Y-91440000D01*
X77470000Y-85090000D02*
X77470000Y-86360000D01*
X138430000Y-55880000D02*
X138430000Y-68580000D01*
X138430000Y-68580000D02*
X138430000Y-78740000D01*
X138430000Y-78740000D02*
X138430000Y-88900000D01*
X138430000Y-100330000D02*
X138430000Y-88900000D01*
X138430000Y-111760000D02*
X138430000Y-101600000D01*
X138430000Y-111760000D02*
X138430000Y-132080000D01*
X93980000Y-173990000D02*
X135890000Y-173990000D01*
X135890000Y-173990000D02*
X140970000Y-179070000D01*
X140970000Y-179070000D02*
X140970000Y-190500000D01*
X140970000Y-190500000D02*
X137160000Y-194310000D01*
X98710000Y-189810800D02*
X98710000Y-187290000D01*
X103209200Y-194310000D02*
X98710000Y-189810800D01*
X137160000Y-194310000D02*
X103209200Y-194310000D01*
X43180000Y-190500000D02*
X41910000Y-190500000D01*
X46990000Y-194310000D02*
X43180000Y-190500000D01*
X48260000Y-66040000D02*
X46990000Y-66040000D01*
X46990000Y-66040000D02*
X45720000Y-67310000D01*
X41910000Y-172720000D02*
X41910000Y-190500000D01*
X45720000Y-168910000D02*
X41910000Y-172720000D01*
X71120000Y-92710000D02*
X72390000Y-91440000D01*
X45720000Y-67310000D02*
X45720000Y-92710000D01*
X64770000Y-92710000D02*
X71120000Y-92710000D01*
X45720000Y-92710000D02*
X64770000Y-92710000D01*
X135890000Y-173990000D02*
X135890000Y-142240000D01*
X138430000Y-139700000D02*
X138430000Y-132080000D01*
X135890000Y-142240000D02*
X138430000Y-139700000D01*
X71120000Y-171450000D02*
X71120000Y-168910000D01*
X71120000Y-168910000D02*
X68580000Y-166370000D01*
X68580000Y-166370000D02*
X53340000Y-166370000D01*
X46990000Y-160020000D02*
X45720000Y-160020000D01*
X53340000Y-166370000D02*
X46990000Y-160020000D01*
X45720000Y-92710000D02*
X45720000Y-160020000D01*
X45720000Y-160020000D02*
X45720000Y-168910000D01*
X62230000Y-190500000D02*
X62230000Y-194310000D01*
X103209200Y-194310000D02*
X62230000Y-194310000D01*
X62230000Y-194310000D02*
X46990000Y-194310000D01*
X48260000Y-66040000D02*
X53340000Y-66040000D01*
X138430000Y-100330000D02*
X138430000Y-101600000D01*
X92211590Y-70348410D02*
X94751590Y-70348410D01*
X91440000Y-71120000D02*
X92211590Y-70348410D01*
X94751590Y-70348410D02*
X99060000Y-66040000D01*
X99060000Y-66040000D02*
X100330000Y-66040000D01*
X100330000Y-66040000D02*
X104140000Y-62230000D01*
X101600000Y-59690000D02*
X99060000Y-59690000D01*
X104140000Y-62230000D02*
X101600000Y-59690000D01*
X96170000Y-187290000D02*
X71720000Y-187290000D01*
X71720000Y-187290000D02*
X71120000Y-186690000D01*
X71120000Y-176530000D02*
X74930000Y-176530000D01*
X74930000Y-176530000D02*
X74930000Y-172720000D01*
X78324001Y-169325999D02*
X93564001Y-169325999D01*
X93564001Y-169325999D02*
X93980000Y-168910000D01*
X74930000Y-172720000D02*
X78324001Y-169325999D01*
X71120000Y-179070000D02*
X68580000Y-179070000D01*
X71120000Y-179070000D02*
X71120000Y-176530000D01*
X68580000Y-179070000D02*
X57150000Y-190500000D01*
X71120000Y-186690000D02*
X71120000Y-179070000D01*
X46990000Y-190500000D02*
X57150000Y-190500000D01*
X93980000Y-168910000D02*
X105410000Y-168910000D01*
X105410000Y-168910000D02*
X106680000Y-167640000D01*
X101766840Y-133350000D02*
X100330000Y-133350000D01*
X106680000Y-138263160D02*
X101766840Y-133350000D01*
X106680000Y-167640000D02*
X106680000Y-138263160D01*
X78740000Y-81280000D02*
X77470000Y-82550000D01*
X83820000Y-81280000D02*
X78740000Y-81280000D01*
X72431002Y-86798010D02*
X66478010Y-86798010D01*
X76246503Y-82982509D02*
X72431002Y-86798010D01*
X77470000Y-82550000D02*
X77037491Y-82982509D01*
X77037491Y-82982509D02*
X76246503Y-82982509D01*
X66478010Y-86798010D02*
X62230000Y-82550000D01*
X62230000Y-82550000D02*
X55880000Y-82550000D01*
X55880000Y-82550000D02*
X55880000Y-78740000D01*
X97790000Y-133350000D02*
X97790000Y-129540000D01*
X97790000Y-133350000D02*
X55880000Y-133350000D01*
X100330000Y-133350000D02*
X97790000Y-133350000D01*
X97790000Y-129540000D02*
X106680000Y-120650000D01*
X106680000Y-45720000D02*
X102870000Y-41910000D01*
X102870000Y-41910000D02*
X68580000Y-41910000D01*
X60960000Y-49530000D02*
X60960000Y-78740000D01*
X68580000Y-41910000D02*
X60960000Y-49530000D01*
X106680000Y-45720000D02*
X110490000Y-41910000D01*
X110490000Y-41910000D02*
X165100000Y-41910000D01*
X165100000Y-67310000D02*
X167640000Y-69850000D01*
X166077900Y-127292100D02*
X164391340Y-127292100D01*
X167640000Y-125730000D02*
X166077900Y-127292100D01*
X162852100Y-47282100D02*
X165100000Y-49530000D01*
X161851340Y-47282100D02*
X162852100Y-47282100D01*
X165100000Y-41910000D02*
X165100000Y-49530000D01*
X162267900Y-59982100D02*
X165100000Y-57150000D01*
X165100000Y-49530000D02*
X165100000Y-57150000D01*
X161851340Y-59982100D02*
X162267900Y-59982100D01*
X165100000Y-57150000D02*
X165100000Y-67310000D01*
X164807900Y-72682100D02*
X167640000Y-69850000D01*
X164391340Y-72682100D02*
X164807900Y-72682100D01*
X164391340Y-84112100D02*
X166077900Y-84112100D01*
X167640000Y-69850000D02*
X167640000Y-82550000D01*
X166077900Y-84112100D02*
X167640000Y-82550000D01*
X164391340Y-93002100D02*
X166077900Y-93002100D01*
X167640000Y-82550000D02*
X167640000Y-92710000D01*
X166077900Y-93002100D02*
X167640000Y-91440000D01*
X164391340Y-101892100D02*
X166662100Y-101892100D01*
X167640000Y-91440000D02*
X167640000Y-101600000D01*
X166662100Y-101892100D02*
X167640000Y-102870000D01*
X164807900Y-113322100D02*
X167640000Y-110490000D01*
X164391340Y-113322100D02*
X164807900Y-113322100D01*
X167640000Y-102870000D02*
X167640000Y-110490000D01*
X167640000Y-110490000D02*
X167640000Y-125730000D01*
X93116400Y-48260000D02*
X93116400Y-53746400D01*
X106680000Y-120650000D02*
X106680000Y-53340000D01*
X93522800Y-53340000D02*
X106680000Y-53340000D01*
X93116400Y-53746400D02*
X93522800Y-53340000D01*
X106680000Y-53340000D02*
X106680000Y-45720000D01*
X93116400Y-53746400D02*
X93116400Y-58826400D01*
X96520000Y-62230000D02*
X99060000Y-62230000D01*
X93116400Y-58826400D02*
X96520000Y-62230000D01*
X55880000Y-78740000D02*
X60960000Y-78740000D01*
X167640000Y-101600000D02*
X167640000Y-102870000D01*
X59690000Y-139700000D02*
X55880000Y-135890000D01*
X59690000Y-146050000D02*
X59690000Y-139700000D01*
X62230000Y-143510000D02*
X64770000Y-146050000D01*
X62230000Y-135890000D02*
X62230000Y-143510000D01*
X69850000Y-137160000D02*
X68580000Y-135890000D01*
X69850000Y-146050000D02*
X69850000Y-137160000D01*
X74930000Y-135890000D02*
X74930000Y-146050000D01*
X81280000Y-144780000D02*
X80010000Y-146050000D01*
X81280000Y-135890000D02*
X81280000Y-144780000D01*
X83820000Y-139700000D02*
X87630000Y-135890000D01*
X83820000Y-146050000D02*
X83820000Y-139700000D01*
X87630000Y-142240000D02*
X93980000Y-135890000D01*
X87630000Y-146050000D02*
X87630000Y-142240000D01*
X92710000Y-143510000D02*
X100330000Y-135890000D01*
X92710000Y-146050000D02*
X92710000Y-143510000D01*
X76200000Y-77470000D02*
X72390000Y-81280000D01*
X76200000Y-69850000D02*
X76200000Y-77470000D01*
X77470000Y-66040000D02*
X76200000Y-67310000D01*
X83820000Y-66040000D02*
X77470000Y-66040000D01*
X74339600Y-67310000D02*
X76200000Y-67310000D01*
X67310000Y-74339600D02*
X74339600Y-67310000D01*
X67310000Y-76200000D02*
X67310000Y-74339600D01*
X129540000Y-186940000D02*
X129190000Y-187290000D01*
X129540000Y-179070000D02*
X129540000Y-186940000D01*
X126650000Y-179420000D02*
X127000000Y-179070000D01*
X126650000Y-187290000D02*
X126650000Y-179420000D01*
X124460000Y-186940000D02*
X124110000Y-187290000D01*
X124460000Y-179070000D02*
X124460000Y-186940000D01*
X121570000Y-179420000D02*
X121920000Y-179070000D01*
X121570000Y-187290000D02*
X121570000Y-179420000D01*
X119380000Y-186940000D02*
X119030000Y-187290000D01*
X119380000Y-179070000D02*
X119380000Y-186940000D01*
X116490000Y-179420000D02*
X116840000Y-179070000D01*
X116490000Y-187290000D02*
X116490000Y-179420000D01*
X114300000Y-186940000D02*
X113950000Y-187290000D01*
X114300000Y-179070000D02*
X114300000Y-186940000D01*
X111410000Y-187290000D02*
X111410000Y-180191590D01*
X111760000Y-179841590D02*
X111760000Y-179070000D01*
X111410000Y-180191590D02*
X111760000Y-179841590D01*
X109220000Y-186940000D02*
X108870000Y-187290000D01*
X109220000Y-179070000D02*
X109220000Y-186940000D01*
X106330000Y-179420000D02*
X106680000Y-179070000D01*
X106330000Y-187290000D02*
X106330000Y-179420000D01*
X104140000Y-186940000D02*
X103790000Y-187290000D01*
X104140000Y-179070000D02*
X104140000Y-186940000D01*
X101250000Y-184769200D02*
X98090800Y-181610000D01*
X101250000Y-187290000D02*
X101250000Y-184769200D01*
X98090800Y-181610000D02*
X81280000Y-181610000D01*
X81280000Y-181610000D02*
X78740000Y-179070000D01*
X78740000Y-179070000D02*
X78740000Y-173990000D01*
X78740000Y-173990000D02*
X81280000Y-171450000D01*
X81280000Y-171450000D02*
X83820000Y-171450000D01*
X157480000Y-189230000D02*
X148590000Y-189230000D01*
X148590000Y-186690000D02*
X157480000Y-186690000D01*
X157480000Y-184150000D02*
X148590000Y-184150000D01*
X148590000Y-181610000D02*
X157480000Y-181610000D01*
X157480000Y-179070000D02*
X148590000Y-179070000D01*
X148590000Y-176530000D02*
X157480000Y-176530000D01*
X157480000Y-173990000D02*
X148590000Y-173990000D01*
X148590000Y-171450000D02*
X157480000Y-171450000D01*
X59690000Y-173990000D02*
X59690000Y-180340000D01*
X54610000Y-172720000D02*
X58420000Y-172720000D01*
X58420000Y-172720000D02*
X59690000Y-173990000D01*
X52070000Y-172720000D02*
X52070000Y-168910000D01*
X52070000Y-168910000D02*
X62230000Y-168910000D01*
X62230000Y-168910000D02*
X66040000Y-172720000D01*
X66040000Y-172720000D02*
X66040000Y-173990000D01*
X66040000Y-173990000D02*
X71120000Y-173990000D01*
X44450000Y-180340000D02*
X44450000Y-175260000D01*
X46990000Y-172720000D02*
X49530000Y-172720000D01*
X44450000Y-175260000D02*
X46990000Y-172720000D01*
X83820000Y-162560000D02*
X92710000Y-153670000D01*
X82550000Y-162560000D02*
X83820000Y-162560000D01*
X80781590Y-160518410D02*
X87630000Y-153670000D01*
X80781590Y-161788410D02*
X80781590Y-160518410D01*
X80010000Y-162560000D02*
X80781590Y-161788410D01*
X77470000Y-160020000D02*
X83820000Y-153670000D01*
X77470000Y-162560000D02*
X77470000Y-160020000D01*
X74930000Y-162560000D02*
X74930000Y-158750000D01*
X74930000Y-158750000D02*
X80010000Y-153670000D01*
X72390000Y-156210000D02*
X72390000Y-162560000D01*
X74930000Y-153670000D02*
X72390000Y-156210000D01*
X69850000Y-162560000D02*
X69850000Y-153670000D01*
X67310000Y-156210000D02*
X64770000Y-153670000D01*
X67310000Y-162560000D02*
X67310000Y-156210000D01*
X64770000Y-158750000D02*
X59690000Y-153670000D01*
X64770000Y-162560000D02*
X64770000Y-158750000D01*
X110490000Y-71120000D02*
X130810000Y-50800000D01*
X110490000Y-104140000D02*
X110490000Y-71120000D01*
X110490000Y-106680000D02*
X113010800Y-106680000D01*
X113030000Y-80010000D02*
X130810000Y-62230000D01*
X110490000Y-106680000D02*
X113030000Y-106680000D01*
X130810000Y-62230000D02*
X134620000Y-62230000D01*
X113030000Y-106680000D02*
X113030000Y-80010000D01*
X110490000Y-109220000D02*
X114300000Y-109220000D01*
X114300000Y-109220000D02*
X119380000Y-104140000D01*
X119380000Y-104140000D02*
X119380000Y-82550000D01*
X128270000Y-73660000D02*
X134620000Y-73660000D01*
X119380000Y-82550000D02*
X128270000Y-73660000D01*
X130810000Y-82550000D02*
X134620000Y-82550000D01*
X127000000Y-100330000D02*
X127000000Y-86360000D01*
X127000000Y-86360000D02*
X130810000Y-82550000D01*
X110490000Y-111760000D02*
X115570000Y-111760000D01*
X115570000Y-111760000D02*
X127000000Y-100330000D01*
X110490000Y-114300000D02*
X116840000Y-114300000D01*
X116840000Y-114300000D02*
X130810000Y-100330000D01*
X130810000Y-100330000D02*
X134620000Y-96520000D01*
X111261590Y-117611590D02*
X117338410Y-117611590D01*
X110490000Y-116840000D02*
X111261590Y-117611590D01*
X117338410Y-117611590D02*
X127000000Y-107950000D01*
X132080000Y-107950000D02*
X133350000Y-106680000D01*
X127000000Y-107950000D02*
X132080000Y-107950000D01*
X129540000Y-119380000D02*
X133350000Y-115570000D01*
X110490000Y-119380000D02*
X129540000Y-119380000D01*
X114300000Y-125730000D02*
X110490000Y-121920000D01*
X135890000Y-125730000D02*
X114300000Y-125730000D01*
X81299200Y-68580000D02*
X83820000Y-68580000D01*
X78740000Y-71139200D02*
X81299200Y-68580000D01*
X67310000Y-78740000D02*
X67310000Y-82550000D01*
X67310000Y-82550000D02*
X69850000Y-85090000D01*
X69850000Y-85090000D02*
X71723522Y-85090000D01*
X78740000Y-78073522D02*
X78740000Y-71139200D01*
X71723522Y-85090000D02*
X78740000Y-78073522D01*
X143510000Y-129540000D02*
X146050000Y-132080000D01*
X143510000Y-125730000D02*
X143510000Y-129540000D01*
X146342100Y-131787900D02*
X146050000Y-132080000D01*
X164391340Y-131787900D02*
X146342100Y-131787900D01*
X140970000Y-115570000D02*
X146050000Y-120650000D01*
X148882100Y-117817900D02*
X146050000Y-120650000D01*
X164391340Y-117817900D02*
X148882100Y-117817900D01*
X140970000Y-106680000D02*
X146050000Y-111760000D01*
X151422100Y-106387900D02*
X146050000Y-111760000D01*
X164391340Y-106387900D02*
X151422100Y-106387900D01*
X142240000Y-97790000D02*
X146050000Y-101600000D01*
X142240000Y-96520000D02*
X142240000Y-97790000D01*
X147612100Y-100037900D02*
X146050000Y-101600000D01*
X147612100Y-98767900D02*
X147612100Y-100037900D01*
X148882100Y-97497900D02*
X147612100Y-98767900D01*
X164391340Y-97497900D02*
X148882100Y-97497900D01*
X142240000Y-85090000D02*
X146050000Y-88900000D01*
X142240000Y-82550000D02*
X142240000Y-85090000D01*
X146342100Y-88607900D02*
X146050000Y-88900000D01*
X164391340Y-88607900D02*
X146342100Y-88607900D01*
X142240000Y-73660000D02*
X154940000Y-73660000D01*
X158457900Y-77177900D02*
X164391340Y-77177900D01*
X154940000Y-73660000D02*
X158457900Y-77177900D01*
X142240000Y-74930000D02*
X146050000Y-78740000D01*
X142240000Y-73660000D02*
X142240000Y-74930000D01*
X150152100Y-64477900D02*
X146050000Y-68580000D01*
X161851340Y-64477900D02*
X150152100Y-64477900D01*
X146050000Y-62230000D02*
X146050000Y-68580000D01*
X142240000Y-62230000D02*
X146050000Y-62230000D01*
X140970000Y-50800000D02*
X146050000Y-55880000D01*
X138430000Y-50800000D02*
X140970000Y-50800000D01*
X157749240Y-55880000D02*
X161851340Y-51777900D01*
X146050000Y-55880000D02*
X157749240Y-55880000D01*
X91440000Y-66040000D02*
X91440000Y-60960000D01*
X91440000Y-60960000D02*
X87630000Y-57150000D01*
X87630000Y-57150000D02*
X87630000Y-48260000D01*
X84886800Y-48260000D02*
X84886800Y-59486800D01*
X84886800Y-59486800D02*
X87630000Y-62230000D01*
X88919200Y-68580000D02*
X91440000Y-68580000D01*
X87630000Y-67290800D02*
X88919200Y-68580000D01*
X87630000Y-62230000D02*
X87630000Y-67290800D01*
M02*
